<mxfile host="app.diagrams.net" modified="2021-09-14T22:57:23.934Z" agent="5.0 (Macintosh; Intel Mac OS X 10_15_7) AppleWebKit/537.36 (KHTML, like Gecko) Chrome/93.0.4577.63 Safari/537.36" etag="DUq8HPmM71LEBthOq-cO" version="15.2.7" type="github">
  <diagram id="N76sUmp2mWes5P5EjdxY" name="Page-1">
    <mxGraphModel dx="946" dy="614" grid="1" gridSize="10" guides="1" tooltips="1" connect="1" arrows="1" fold="1" page="1" pageScale="1" pageWidth="850" pageHeight="1100" math="0" shadow="0">
      <root>
        <mxCell id="0" />
        <mxCell id="1" parent="0" />
        <mxCell id="rNXr1qaAiPqOqTDMvA8Y-1" value="Bob" style="shape=umlActor;verticalLabelPosition=bottom;verticalAlign=top;html=1;outlineConnect=0;fillColor=#FFCE9F;" vertex="1" parent="1">
          <mxGeometry x="30" y="20" width="30" height="60" as="geometry" />
        </mxCell>
        <mxCell id="rNXr1qaAiPqOqTDMvA8Y-12" style="edgeStyle=orthogonalEdgeStyle;rounded=0;orthogonalLoop=1;jettySize=auto;html=1;entryX=0.5;entryY=0;entryDx=0;entryDy=0;" edge="1" parent="1" source="rNXr1qaAiPqOqTDMvA8Y-7" target="rNXr1qaAiPqOqTDMvA8Y-9">
          <mxGeometry relative="1" as="geometry" />
        </mxCell>
        <mxCell id="rNXr1qaAiPqOqTDMvA8Y-7" value="Start" style="ellipse;whiteSpace=wrap;html=1;fillColor=#FFCE9F;" vertex="1" parent="1">
          <mxGeometry x="330" y="40" width="120" height="80" as="geometry" />
        </mxCell>
        <mxCell id="rNXr1qaAiPqOqTDMvA8Y-13" style="edgeStyle=orthogonalEdgeStyle;rounded=0;orthogonalLoop=1;jettySize=auto;html=1;" edge="1" parent="1" source="rNXr1qaAiPqOqTDMvA8Y-9" target="rNXr1qaAiPqOqTDMvA8Y-10">
          <mxGeometry relative="1" as="geometry" />
        </mxCell>
        <mxCell id="rNXr1qaAiPqOqTDMvA8Y-9" value="Game Started" style="rounded=0;whiteSpace=wrap;html=1;fillColor=#FFCE9F;" vertex="1" parent="1">
          <mxGeometry x="330" y="190" width="120" height="60" as="geometry" />
        </mxCell>
        <mxCell id="rNXr1qaAiPqOqTDMvA8Y-15" style="edgeStyle=orthogonalEdgeStyle;rounded=0;orthogonalLoop=1;jettySize=auto;html=1;entryX=0.5;entryY=0;entryDx=0;entryDy=0;" edge="1" parent="1" source="rNXr1qaAiPqOqTDMvA8Y-10" target="rNXr1qaAiPqOqTDMvA8Y-14">
          <mxGeometry relative="1" as="geometry" />
        </mxCell>
        <mxCell id="rNXr1qaAiPqOqTDMvA8Y-10" value="Game Loop" style="shape=trapezoid;perimeter=trapezoidPerimeter;whiteSpace=wrap;html=1;fixedSize=1;fillColor=#FFCE9F;rotation=0;" vertex="1" parent="1">
          <mxGeometry x="330" y="330" width="120" height="60" as="geometry" />
        </mxCell>
        <mxCell id="rNXr1qaAiPqOqTDMvA8Y-17" style="edgeStyle=orthogonalEdgeStyle;rounded=0;orthogonalLoop=1;jettySize=auto;html=1;entryX=0.5;entryY=0;entryDx=0;entryDy=0;" edge="1" parent="1" source="rNXr1qaAiPqOqTDMvA8Y-14" target="rNXr1qaAiPqOqTDMvA8Y-16">
          <mxGeometry relative="1" as="geometry" />
        </mxCell>
        <mxCell id="rNXr1qaAiPqOqTDMvA8Y-14" value="Render" style="shape=process;whiteSpace=wrap;html=1;backgroundOutline=1;fillColor=#FFCE9F;" vertex="1" parent="1">
          <mxGeometry x="330" y="460" width="120" height="60" as="geometry" />
        </mxCell>
        <mxCell id="rNXr1qaAiPqOqTDMvA8Y-18" style="edgeStyle=orthogonalEdgeStyle;rounded=0;orthogonalLoop=1;jettySize=auto;html=1;" edge="1" parent="1" source="rNXr1qaAiPqOqTDMvA8Y-16">
          <mxGeometry relative="1" as="geometry">
            <mxPoint x="390" y="690" as="targetPoint" />
          </mxGeometry>
        </mxCell>
        <mxCell id="rNXr1qaAiPqOqTDMvA8Y-16" value="Update" style="shape=process;whiteSpace=wrap;html=1;backgroundOutline=1;fillColor=#FFCE9F;" vertex="1" parent="1">
          <mxGeometry x="330" y="570" width="120" height="60" as="geometry" />
        </mxCell>
        <mxCell id="rNXr1qaAiPqOqTDMvA8Y-21" style="edgeStyle=orthogonalEdgeStyle;rounded=0;orthogonalLoop=1;jettySize=auto;html=1;entryX=1;entryY=0.5;entryDx=0;entryDy=0;" edge="1" parent="1" source="rNXr1qaAiPqOqTDMvA8Y-19" target="rNXr1qaAiPqOqTDMvA8Y-20">
          <mxGeometry relative="1" as="geometry" />
        </mxCell>
        <mxCell id="rNXr1qaAiPqOqTDMvA8Y-26" style="edgeStyle=orthogonalEdgeStyle;rounded=0;orthogonalLoop=1;jettySize=auto;html=1;entryX=0.5;entryY=0;entryDx=0;entryDy=0;" edge="1" parent="1" source="rNXr1qaAiPqOqTDMvA8Y-19" target="rNXr1qaAiPqOqTDMvA8Y-24">
          <mxGeometry relative="1" as="geometry" />
        </mxCell>
        <mxCell id="rNXr1qaAiPqOqTDMvA8Y-19" value="Game Not&lt;br&gt;Paused" style="rhombus;whiteSpace=wrap;html=1;fillColor=#FFCE9F;" vertex="1" parent="1">
          <mxGeometry x="350" y="690" width="80" height="80" as="geometry" />
        </mxCell>
        <mxCell id="rNXr1qaAiPqOqTDMvA8Y-40" style="edgeStyle=orthogonalEdgeStyle;rounded=0;orthogonalLoop=1;jettySize=auto;html=1;entryX=0.5;entryY=0;entryDx=0;entryDy=0;" edge="1" parent="1" source="rNXr1qaAiPqOqTDMvA8Y-20" target="rNXr1qaAiPqOqTDMvA8Y-39">
          <mxGeometry relative="1" as="geometry" />
        </mxCell>
        <mxCell id="rNXr1qaAiPqOqTDMvA8Y-20" value="Pause the game" style="rounded=0;whiteSpace=wrap;html=1;fillColor=#FFCE9F;" vertex="1" parent="1">
          <mxGeometry x="130" y="700" width="120" height="60" as="geometry" />
        </mxCell>
        <mxCell id="rNXr1qaAiPqOqTDMvA8Y-22" value="No" style="text;html=1;align=center;verticalAlign=middle;resizable=0;points=[];autosize=1;strokeColor=none;fillColor=none;" vertex="1" parent="1">
          <mxGeometry x="285" y="700" width="30" height="20" as="geometry" />
        </mxCell>
        <mxCell id="rNXr1qaAiPqOqTDMvA8Y-27" style="edgeStyle=orthogonalEdgeStyle;rounded=0;orthogonalLoop=1;jettySize=auto;html=1;" edge="1" parent="1" source="rNXr1qaAiPqOqTDMvA8Y-24">
          <mxGeometry relative="1" as="geometry">
            <mxPoint x="390" y="970" as="targetPoint" />
          </mxGeometry>
        </mxCell>
        <mxCell id="rNXr1qaAiPqOqTDMvA8Y-30" style="edgeStyle=orthogonalEdgeStyle;rounded=0;orthogonalLoop=1;jettySize=auto;html=1;entryX=0;entryY=0.5;entryDx=0;entryDy=0;" edge="1" parent="1" source="rNXr1qaAiPqOqTDMvA8Y-24" target="rNXr1qaAiPqOqTDMvA8Y-25">
          <mxGeometry relative="1" as="geometry" />
        </mxCell>
        <mxCell id="rNXr1qaAiPqOqTDMvA8Y-24" value="Won the game" style="rhombus;whiteSpace=wrap;html=1;fillColor=#FFCE9F;" vertex="1" parent="1">
          <mxGeometry x="350" y="820" width="80" height="80" as="geometry" />
        </mxCell>
        <mxCell id="rNXr1qaAiPqOqTDMvA8Y-32" style="edgeStyle=orthogonalEdgeStyle;rounded=0;orthogonalLoop=1;jettySize=auto;html=1;entryX=1;entryY=0.5;entryDx=0;entryDy=0;" edge="1" parent="1" source="rNXr1qaAiPqOqTDMvA8Y-25" target="rNXr1qaAiPqOqTDMvA8Y-28">
          <mxGeometry relative="1" as="geometry">
            <Array as="points">
              <mxPoint x="540" y="1020" />
            </Array>
          </mxGeometry>
        </mxCell>
        <mxCell id="rNXr1qaAiPqOqTDMvA8Y-34" style="edgeStyle=orthogonalEdgeStyle;rounded=0;orthogonalLoop=1;jettySize=auto;html=1;entryX=1;entryY=0.5;entryDx=0;entryDy=0;" edge="1" parent="1" source="rNXr1qaAiPqOqTDMvA8Y-25" target="rNXr1qaAiPqOqTDMvA8Y-10">
          <mxGeometry relative="1" as="geometry">
            <Array as="points">
              <mxPoint x="650" y="860" />
              <mxPoint x="650" y="360" />
            </Array>
          </mxGeometry>
        </mxCell>
        <mxCell id="rNXr1qaAiPqOqTDMvA8Y-25" value="Lost the game" style="rhombus;whiteSpace=wrap;html=1;fillColor=#FFCE9F;" vertex="1" parent="1">
          <mxGeometry x="500" y="820" width="80" height="80" as="geometry" />
        </mxCell>
        <mxCell id="rNXr1qaAiPqOqTDMvA8Y-28" value="Exit" style="ellipse;whiteSpace=wrap;html=1;fillColor=#FFCE9F;" vertex="1" parent="1">
          <mxGeometry x="330" y="980" width="120" height="80" as="geometry" />
        </mxCell>
        <mxCell id="rNXr1qaAiPqOqTDMvA8Y-31" value="No" style="text;html=1;align=center;verticalAlign=middle;resizable=0;points=[];autosize=1;strokeColor=none;fillColor=none;" vertex="1" parent="1">
          <mxGeometry x="445" y="830" width="30" height="20" as="geometry" />
        </mxCell>
        <mxCell id="rNXr1qaAiPqOqTDMvA8Y-33" value="Yes" style="text;html=1;align=center;verticalAlign=middle;resizable=0;points=[];autosize=1;strokeColor=none;fillColor=none;" vertex="1" parent="1">
          <mxGeometry x="560" y="900" width="40" height="20" as="geometry" />
        </mxCell>
        <mxCell id="rNXr1qaAiPqOqTDMvA8Y-37" style="edgeStyle=orthogonalEdgeStyle;rounded=0;orthogonalLoop=1;jettySize=auto;html=1;entryX=0.5;entryY=0;entryDx=0;entryDy=0;" edge="1" parent="1" source="rNXr1qaAiPqOqTDMvA8Y-35" target="rNXr1qaAiPqOqTDMvA8Y-36">
          <mxGeometry relative="1" as="geometry" />
        </mxCell>
        <mxCell id="rNXr1qaAiPqOqTDMvA8Y-35" value="Start Render" style="shape=process;whiteSpace=wrap;html=1;backgroundOutline=1;fillColor=#FFCE9F;" vertex="1" parent="1">
          <mxGeometry x="700" y="30" width="120" height="60" as="geometry" />
        </mxCell>
        <mxCell id="rNXr1qaAiPqOqTDMvA8Y-36" value="End Render" style="shape=process;whiteSpace=wrap;html=1;backgroundOutline=1;fillColor=#FFCE9F;" vertex="1" parent="1">
          <mxGeometry x="700" y="270" width="120" height="60" as="geometry" />
        </mxCell>
        <mxCell id="rNXr1qaAiPqOqTDMvA8Y-41" style="edgeStyle=orthogonalEdgeStyle;rounded=0;orthogonalLoop=1;jettySize=auto;html=1;entryX=0;entryY=0.5;entryDx=0;entryDy=0;" edge="1" parent="1" source="rNXr1qaAiPqOqTDMvA8Y-39" target="rNXr1qaAiPqOqTDMvA8Y-24">
          <mxGeometry relative="1" as="geometry" />
        </mxCell>
        <mxCell id="rNXr1qaAiPqOqTDMvA8Y-42" style="edgeStyle=orthogonalEdgeStyle;rounded=0;orthogonalLoop=1;jettySize=auto;html=1;entryX=0;entryY=0.5;entryDx=0;entryDy=0;" edge="1" parent="1" source="rNXr1qaAiPqOqTDMvA8Y-39" target="rNXr1qaAiPqOqTDMvA8Y-20">
          <mxGeometry relative="1" as="geometry">
            <Array as="points">
              <mxPoint x="110" y="860" />
              <mxPoint x="110" y="730" />
            </Array>
          </mxGeometry>
        </mxCell>
        <mxCell id="rNXr1qaAiPqOqTDMvA8Y-39" value="Game&lt;br&gt;UnPaused" style="rhombus;whiteSpace=wrap;html=1;fillColor=#FFCE9F;" vertex="1" parent="1">
          <mxGeometry x="150" y="820" width="80" height="80" as="geometry" />
        </mxCell>
        <mxCell id="rNXr1qaAiPqOqTDMvA8Y-43" value="No" style="text;html=1;align=center;verticalAlign=middle;resizable=0;points=[];autosize=1;strokeColor=none;fillColor=none;" vertex="1" parent="1">
          <mxGeometry x="120" y="840" width="30" height="20" as="geometry" />
        </mxCell>
        <mxCell id="rNXr1qaAiPqOqTDMvA8Y-44" value="Yes" style="text;html=1;align=center;verticalAlign=middle;resizable=0;points=[];autosize=1;strokeColor=none;fillColor=none;" vertex="1" parent="1">
          <mxGeometry x="220" y="840" width="40" height="20" as="geometry" />
        </mxCell>
      </root>
    </mxGraphModel>
  </diagram>
</mxfile>
